<?xml version="1.0" standalone="no"?>
<!DOCTYPE svg PUBLIC "-//W3C//DTD SVG 20010904//EN"
 "http://www.w3.org/TR/2001/REC-SVG-20010904/DTD/svg10.dtd">
<svg version="1.0" xmlns="http://www.w3.org/2000/svg"
 width="647.000000pt" height="647.000000pt" viewBox="0 0 647.000000 647.000000"
 preserveAspectRatio="xMidYMid meet">
<metadata>
Created by potrace 1.14, written by Peter Selinger 2001-2017
</metadata>
<g transform="translate(0.000000,647.000000) scale(0.100000,-0.100000)"
fill="#000000" stroke="none">
<path d="M2800 4694 c-152 -19 -332 -68 -400 -108 -30 -18 -76 -40 -101 -50
-86 -31 -230 -135 -339 -245 -199 -200 -315 -409 -374 -676 l-22 -100 -38 3
c-23 2 -48 -3 -63 -13 -14 -9 -48 -25 -76 -35 -92 -32 -229 -90 -377 -162 -80
-38 -162 -76 -182 -83 -35 -13 -91 -47 -306 -188 -51 -34 -90 -66 -88 -73 3
-7 -4 -29 -15 -49 -17 -32 -18 -42 -8 -73 18 -55 82 -117 147 -143 31 -12 62
-25 67 -29 6 -4 28 -10 50 -14 95 -16 478 -112 537 -135 15 -6 51 -43 82 -83
83 -112 357 -373 480 -457 104 -72 435 -251 463 -251 8 0 83 -21 167 -46 187
-58 198 -60 378 -79 236 -24 447 -15 683 30 263 51 345 78 550 182 306 155
406 221 588 387 96 88 217 225 262 296 36 57 52 69 93 70 93 1 340 75 457 137
130 69 149 90 143 159 -6 69 -42 104 -107 104 -19 0 -30 5 -29 12 2 7 -7 13
-20 14 -12 1 -26 5 -30 9 -4 5 1 5 11 2 11 -4 16 -3 12 3 -3 6 -14 10 -25 10
-10 0 -44 15 -77 34 -32 18 -106 60 -164 94 -59 33 -183 95 -275 138 -93 42
-185 84 -204 94 -48 25 -106 50 -115 50 -4 0 -22 13 -41 30 -29 25 -55 34
-123 43 -9 1 -25 47 -46 127 -58 221 -76 261 -202 455 -251 385 -649 599
-1128 610 -88 2 -176 1 -195 -1z m47 -30 c-3 -3 -12 -4 -19 -1 -8 3 -5 6 6 6
11 1 17 -2 13 -5z m448 -36 c13 -5 9 -6 -15 -2 -19 4 -42 10 -50 15 -18 11 34
1 65 -13z m125 -33 c32 -18 5 -19 -35 0 -23 10 -25 13 -10 14 11 0 31 -6 45
-14z m-190 -34 c141 -24 185 -41 222 -87 10 -12 32 -27 50 -35 18 -7 52 -28
76 -46 24 -18 92 -61 150 -95 124 -72 191 -135 226 -213 15 -30 26 -59 26 -63
0 -4 21 -24 48 -43 45 -34 49 -41 75 -130 16 -52 34 -110 42 -129 8 -19 15
-55 17 -78 3 -44 3 -44 -42 -59 -25 -8 -52 -22 -60 -31 -34 -39 -100 -57 -255
-71 -489 -46 -700 -54 -910 -33 -71 7 -282 15 -469 17 -353 5 -392 7 -462 31
-23 8 -48 12 -56 9 -8 -3 -25 3 -38 15 -13 11 -29 20 -35 20 -7 0 -18 7 -25
15 -7 8 -16 13 -20 10 -14 -9 -40 25 -40 51 0 14 -4 34 -10 44 -7 13 -5 29 5
53 8 20 18 62 21 93 7 52 15 68 81 156 40 53 77 99 82 103 5 3 12 19 16 35 4
16 24 51 45 77 22 26 42 58 46 72 6 27 122 131 168 153 14 6 26 15 26 19 0 4
14 12 30 18 17 5 30 14 30 19 0 9 19 13 130 28 25 3 88 23 140 44 53 21 107
40 120 43 42 7 492 -2 550 -12z m-1020 -106 c0 -5 -97 -77 -120 -89 -22 -11
38 41 80 69 39 26 40 27 40 20z m-520 -639 c0 -3 -4 -8 -10 -11 -5 -3 -10 -1
-10 4 0 6 5 11 10 11 6 0 10 -2 10 -4z m-41 -105 c-16 -54 -24 -46 -9 9 6 23
14 40 16 37 3 -3 0 -24 -7 -46z m-519 -371 c-8 -5 -19 -10 -25 -10 -5 0 -3 5
5 10 8 5 20 10 25 10 6 0 3 -5 -5 -10z m384 -102 c-3 -4 -12 -8 -20 -8 -8 0
-14 -7 -14 -15 0 -8 -11 -22 -25 -32 -14 -10 -43 -33 -63 -50 -20 -18 -41 -33
-45 -33 -5 0 -29 -14 -55 -32 -47 -31 -58 -40 -97 -75 -12 -11 -36 -25 -55
-33 -19 -7 -42 -19 -50 -25 -38 -30 -110 -64 -123 -59 -8 3 -14 18 -15 34 0
22 10 38 48 72 57 51 90 75 145 108 22 13 42 27 45 30 3 4 16 13 29 20 14 7
30 17 35 21 42 35 97 62 148 72 69 14 119 16 112 5z m3162 -213 c13 -31 13
-39 0 -64 -19 -35 -53 -45 -83 -25 -49 31 -16 124 44 124 18 0 28 -9 39 -35z
m-646 -137 c61 -65 -22 -180 -100 -138 -30 16 -42 66 -26 105 24 57 88 74 126
33z m-1315 -4 c26 -10 46 -59 38 -96 -13 -69 -48 -108 -98 -108 -42 0 -65 34
-65 92 1 45 16 70 60 101 26 18 39 21 65 11z m647 -11 c27 -24 24 -100 -5
-136 -44 -55 -141 -25 -131 41 1 6 2 21 3 31 0 11 13 33 27 50 30 35 76 42
106 14z"/>
<path d="M4072 3768 c2 -6 10 -14 16 -16 7 -2 10 2 6 12 -7 18 -28 22 -22 4z"/>
</g>
</svg>
